<?xml version="1.0" encoding="UTF-8" standalone="no"?>
<!-- Created with Inkscape (http://www.inkscape.org/) -->

<svg
   width="200mm"
   height="200mm"
   viewBox="0 0 200 200"
   version="1.1"
   id="svg1"
   xml:space="preserve"
   inkscape:version="1.3 (0e150ed, 2023-07-21)"
   sodipodi:docname="jayiza_logo.svg"
   inkscape:export-filename="Desktop/jayiza_linkedin_logo.png"
   inkscape:export-xdpi="127"
   inkscape:export-ydpi="127"
   xmlns:inkscape="http://www.inkscape.org/namespaces/inkscape"
   xmlns:sodipodi="http://sodipodi.sourceforge.net/DTD/sodipodi-0.dtd"
   xmlns="http://www.w3.org/2000/svg"
   xmlns:svg="http://www.w3.org/2000/svg"><sodipodi:namedview
     id="namedview1"
     pagecolor="#505050"
     bordercolor="#ffffff"
     borderopacity="1"
     inkscape:showpageshadow="0"
     inkscape:pageopacity="0"
     inkscape:pagecheckerboard="1"
     inkscape:deskcolor="#505050"
     inkscape:document-units="mm"
     inkscape:zoom="0.65575523"
     inkscape:cx="428.51355"
     inkscape:cy="389.62709"
     inkscape:window-width="1768"
     inkscape:window-height="1212"
     inkscape:window-x="2993"
     inkscape:window-y="1293"
     inkscape:window-maximized="0"
     inkscape:current-layer="layer1"
     inkscape:export-bgcolor="#ffffff00" /><defs
     id="defs1" /><g
     inkscape:label="Layer 1"
     inkscape:groupmode="layer"
     id="layer1"><g
       id="g105"
       transform="translate(151.49569,127.24496)"><path
         d="m -10.96815,-69.33638 c 0.172874,0 0.73255,0.147345 1.5953666,0.412926 0.8628169,0.265581 2.0287335,0.649149 3.4142743,1.123109 2.7710815,0.94792 6.42012264,2.255931 10.2787826,3.694153 3.8586601,1.438223 7.4620945,2.745634 10.1583215,3.693553 2.696227,0.94792 4.48561,1.536034 4.717776,1.536034 0.130015,0 0.243922,0.05011 0.342207,0.154622 0.09828,0.104516 0.180888,0.263634 0.247515,0.482447 0.133255,0.437623 0.203295,1.113473 0.210358,2.067023 0.0071,0.953549 -0.04866,2.184732 -0.167208,3.732509 -0.118547,1.547776 -0.299998,3.41202 -0.543575,5.632324 -0.401398,3.658742 -0.786977,7.517415 -1.388603,14.113774 -0.601626,6.596359 -1.419392,15.930347 -2.684314,30.5414869 C 14.331612,8.0257744 13.393798,18.077378 13.128347,20.184501 l -0.482445,3.831395 -12.94631606,9.444541 C -7.4208153,38.655065 -13.779258,43.226606 -14.43037,43.619358 c -0.12757,0.07695 -0.240967,0.130815 -0.340408,0.153424 -0.09944,0.0226 -0.185411,0.01411 -0.258303,-0.03237 -0.07289,-0.04648 -0.13247,-0.130988 -0.180392,-0.2613 -0.04792,-0.13031 -0.08394,-0.306299 -0.10847,-0.535184 -0.04907,-0.457771 -0.05299,-1.127696 -0.01798,-2.068222 0.03501,-0.940527 0.108702,-2.151728 0.215152,-3.692955 h 5.99e-4 c 0.271562,-3.932991 1.228202,-15.116562 2.125756,-24.852228 0.897554,-9.7356646 1.991197,-21.8649121 2.430805,-26.954011 0.439608,-5.089095 1.198479,-13.768987 1.6858622,-19.288824 0.2437061,-2.759919 0.3901276,-5.298793 0.4297059,-7.165962 0.019785,-0.933584 0.012653,-1.699438 -0.022174,-2.240824 -0.034827,-0.541385 -0.097546,-0.858258 -0.1893829,-0.894771 -0.3672633,-0.146054 -6.8232752,-3.281229 -14.3463052,-6.96699 l -13.678075,-6.701495 3.2183,-1.379614 c 1.770112,-0.758879 7.273578,-3.33606 12.22954,-5.727016 2.477967,-1.195474 4.87218,-2.282342 6.733258,-3.07027 0.93054,-0.393964 1.727656,-0.71357 2.335516,-0.934325 0.607859,-0.220756 1.026347,-0.342807 1.199221,-0.342807 z"
         style="fill:#ffdd00;fill-opacity:1;stroke-width:3.04102"
         id="path232" /><path
         d="m -22.882656,-125.33146 c -0.281482,-7.9e-4 -0.570485,0.0166 -0.866876,0.0531 -0.296392,0.0364 -0.599889,0.0914 -0.909498,0.16405 -0.619218,0.14525 -1.263187,0.3615 -1.925142,0.64413 -0.661958,0.28262 -1.342119,0.63144 -2.033302,1.04137 -0.691183,0.40992 -1.393552,0.88093 -2.100448,1.40807 -0.706898,0.52716 -1.41829,1.11073 -2.127389,1.74502 -0.709097,0.63429 -1.415929,1.31963 -2.113716,2.051 -0.697788,0.73135 -1.386474,1.50847 -2.059437,2.3268 -0.672963,0.81836 -1.330321,1.67763 -1.964948,2.57289 -0.42258,0.59614 -0.843556,1.22122 -1.262119,1.87207 -0.418563,0.65084 -0.834469,1.32747 -1.24684,2.02727 -0.824738,1.3996 -1.634805,2.89137 -2.421707,4.45219 -0.786901,1.56083 -1.550535,3.1908 -2.282187,4.86674 -0.731652,1.675943 -1.431407,3.398013 -2.090397,5.142965 -0.658988,1.74495 -1.277423,3.513022 -1.846335,5.280874 -0.568913,1.76785 -1.088582,3.535427 -1.550006,5.28007 -0.461422,1.744643 -0.864481,3.466027 -1.201002,5.141353 -0.168261,0.837664 -0.319773,1.663899 -0.453542,2.475587 -0.133771,0.811687 -0.249891,1.609188 -0.346993,2.389139 -0.08947,0.718724 -0.192995,1.349838 -0.287486,1.788033 -0.04724,0.219099 -0.09194,0.39008 -0.13188,0.499381 -0.03994,0.109305 -0.07479,0.156812 -0.101721,0.129871 -0.05387,-0.05387 -0.262627,-0.708663 -0.555267,-1.720486 -0.29264,-1.011823 -0.669345,-2.380643 -1.059472,-3.861945 -0.305473,-1.159883 -0.62265,-2.290357 -0.950911,-3.391117 -0.328263,-1.100758 -0.667648,-2.171646 -1.018058,-3.211787 -0.35041,-1.040141 -0.711682,-2.049605 -1.083596,-3.027636 -0.371917,-0.978032 -0.754347,-1.924639 -1.147126,-2.839064 -0.392779,-0.914426 -0.796044,-1.796738 -1.209045,-2.646066 -0.413,-0.849327 -0.835971,-1.665511 -1.268552,-2.448246 -0.432579,-0.782733 -0.874529,-1.532157 -1.326048,-2.246803 -0.451518,-0.714647 -0.912525,-1.394669 -1.382339,-2.039735 -0.506222,-0.695048 -1.136674,-1.458768 -1.82583,-2.227508 -0.689156,-0.76874 -1.436976,-1.54258 -2.177647,-2.25806 -0.740671,-0.71548 -1.474263,-1.37259 -2.135027,-1.90785 -0.330382,-0.26764 -0.642631,-0.50486 -0.928395,-0.70364 -0.285764,-0.19877 -0.544856,-0.35919 -0.769575,-0.47324 -0.273275,-0.1387 -0.582484,-0.25649 -0.919147,-0.35423 -0.336662,-0.0977 -0.701079,-0.17524 -1.084802,-0.2328 -0.383725,-0.0576 -0.786945,-0.0952 -1.201406,-0.11339 -0.41446,-0.0182 -0.840084,-0.0168 -1.268953,0.004 -0.42887,0.0204 -0.860897,0.0599 -1.287852,0.11821 -0.426956,0.0583 -0.848981,0.13545 -1.257696,0.23079 -0.408714,0.0954 -0.803936,0.20893 -1.178083,0.34056 -0.374149,0.13163 -0.72697,0.28119 -1.050225,0.44832 -0.708826,0.36648 -1.36679,0.75763 -1.975,1.17647 -0.608211,0.41884 -1.166902,0.86535 -1.677464,1.34213 -0.51056,0.47679 -0.972894,0.98397 -1.388776,1.52428 -0.415883,0.5403 -0.785154,1.11349 -1.109326,1.7229 -0.324173,0.6094 -0.603294,1.255124 -0.838735,1.939211 -0.235431,0.684088 -0.427314,1.406864 -0.576982,2.171213 -0.149658,0.764351 -0.257216,1.569906 -0.32407,2.4201 -0.06688,0.850194 -0.093,1.745056 -0.08003,2.686676 0.01221,0.887699 0.05054,1.706829 0.123036,2.471565 0.07252,0.764737 0.179587,1.47492 0.33011,2.144275 0.150513,0.669356 0.344491,1.297854 0.590641,1.89941 0.246149,0.601557 0.544433,1.176035 0.903869,1.737374 0.359445,0.561338 0.779771,1.109463 1.270163,1.658164 0.490402,0.5487 1.050917,1.098139 1.689929,1.661783 0.639012,0.563643 1.356678,1.141657 2.161965,1.747825 0.805289,0.606171 1.698257,1.240427 2.687481,1.916701 1.275992,0.872321 2.581282,1.713206 3.960455,2.545948 1.379174,0.832744 2.832321,1.657603 4.403141,2.498103 1.570821,0.8405 3.259462,1.696597 5.110395,2.592188 1.850933,0.895592 3.863908,1.83059 6.083418,2.828608 1.558688,0.700875 3.074855,1.341312 4.262013,1.808944 0.59358,0.233816 1.104899,0.424516 1.498138,0.557681 0.393239,0.133163 0.668418,0.208815 0.789678,0.2131 0.176609,0.0063 0.442066,-0.0361 0.786462,-0.122634 0.344395,-0.08654 0.767986,-0.217182 1.260108,-0.386798 0.984243,-0.339231 2.243531,-0.834651 3.698301,-1.447877 1.45477,-0.613226 3.104748,-1.344092 4.86955,-2.153523 1.764802,-0.80943 3.644774,-1.697714 5.559111,-2.625561 1.914337,-0.927845 3.863209,-1.895119 5.766583,-2.863588 1.903376,-0.96847 3.761254,-1.937915 5.493171,-2.86922 1.731919,-0.931304 3.337707,-1.82449 4.73767,-2.640839 1.399963,-0.81635 2.59377,-1.556053 3.501283,-2.179657 1.801921,-1.238206 3.400373,-2.395073 4.810846,-3.485201 0.705238,-0.545064 1.36379,-1.073549 1.977012,-1.586996 0.61322,-0.513447 1.181312,-1.0119 1.706413,-1.497334 0.5251003,-0.485432 1.0070002,-0.957907 1.4478779,-1.418928 0.4408766,-0.461286 0.8408527,-0.910629 1.2014046,-1.350839 0.360552,-0.440212 0.6816647,-0.871281 0.9657877,-1.294285 0.2841229,-0.423005 0.5310462,-0.838245 0.7426356,-1.247644 0.1379949,-0.267006 0.2869516,-0.652091 0.4382637,-1.119784 0.1513121,-0.467693 0.3050342,-1.017935 0.4519335,-1.614337 0.1469004,-0.596403 0.2869689,-1.23904 0.4117265,-1.892173 0.1247588,-0.653132 0.2343621,-1.316613 0.3192502,-1.954494 0.084475,-0.634802 0.1504887,-1.264627 0.1990272,-1.888557 0.048535,-0.62392 0.079593,-1.24197 0.092883,-1.85317 0.013279,-0.6112 0.00881,-1.21553 -0.012467,-1.81216 -0.021281,-0.59663 -0.059413,-1.1857 -0.1145937,-1.76592 -0.05518,-0.58022 -0.1271362,-1.15169 -0.215514,-1.71365 -0.088372,-0.56196 -0.1931252,-1.11429 -0.3140209,-1.65615 -0.1208957,-0.54186 -0.2581912,-1.07312 -0.4109229,-1.59303 -0.1527316,-0.51991 -0.3211243,-1.02856 -0.5050077,-1.52468 -0.1838845,-0.49612 -0.3831343,-0.9798 -0.5974863,-1.45029 -0.214352,-0.47048 -0.4438165,-0.92767 -0.6879529,-1.37068 -0.2441363,-0.443 -0.5027694,-0.87175 -0.7760082,-1.28544 -0.2732376,-0.41367 -0.5612016,-0.81245 -0.8628552,-1.19496 -0.3016558,-0.38251 -0.6171009,-0.74897 -0.9464884,-1.09847 -0.3293899,-0.34951 -0.6724757,-0.68211 -1.0289147,-0.99675 -0.356438,-0.31464 -0.726122,-0.61106 -1.108928,-0.88899 -0.382805,-0.27794 -0.778844,-0.53742 -1.187332,-0.77681 -0.835807,-0.48982 -1.733498,-0.94844 -2.648479,-1.36144 -0.914979,-0.41301 -1.847219,-0.78025 -2.752616,-1.08641 -0.905396,-0.30616 -1.783925,-0.55126 -2.590982,-0.72052 -0.403527,-0.0847 -0.789247,-0.15023 -1.151548,-0.19501 -0.362299,-0.0447 -0.701243,-0.0688 -1.011222,-0.0699 z m -0.352218,16.66566 c 0.487972,0.0199 0.902891,0.067 1.277397,0.14796 0.374505,0.081 0.708396,0.19593 1.033739,0.35182 0.325343,0.15589 0.64219,0.35275 0.982675,0.59748 0.446142,0.32068 0.848323,0.68272 1.205024,1.07837 0.356702,0.39566 0.667786,0.82483 0.932818,1.27981 0.265032,0.45498 0.483849,0.93556 0.654982,1.43421 0.171132,0.49865 0.294906,1.01529 0.369911,1.54196 0.07501,0.52668 0.101361,1.06364 0.078,1.60268 -0.02336,0.53905 -0.0964,1.080187 -0.220337,1.61595 -0.123938,0.535764 -0.298761,1.066144 -0.525514,1.582975 -0.226753,0.516833 -0.505729,1.020312 -0.837527,1.502561 -0.360662,0.524207 -0.77571,1.061535 -1.246838,1.613533 -0.47113,0.551998 -0.99833,1.118664 -1.583378,1.701186 -0.585048,0.582523 -1.227949,1.180696 -1.930371,1.796478 -0.702421,0.615784 -1.464165,1.248841 -2.287413,1.900617 -0.823249,0.651778 -1.707785,1.322291 -2.655314,2.012795 -0.947529,0.690506 -1.958003,1.401049 -3.033266,2.133017 -1.075263,0.731968 -2.215222,1.485517 -3.421672,2.261681 -1.206452,0.776164 -2.479441,1.575292 -3.820532,2.398388 -3.110767,1.909238 -6.364799,3.837429 -7.230948,4.285332 l -1.574531,0.814608 0.352219,-1.761498 c 0.07476,-0.373762 0.220809,-0.855097 0.428212,-1.424559 0.207402,-0.56946 0.476033,-1.227017 0.795308,-1.952483 0.319274,-0.725465 0.689308,-1.518817 1.099679,-2.360592 0.410371,-0.841776 0.861039,-1.731697 1.34173,-2.650087 0.96138,-1.83678 2.042725,-3.787126 3.160724,-5.692199 0.559,-0.952536 1.126958,-1.894014 1.693949,-2.804083 0.56699,-0.910068 1.13291,-1.788809 1.687113,-2.616714 0.650539,-0.971812 1.285488,-1.892596 1.903029,-2.760257 0.617542,-0.86766 1.2178,-1.682459 1.798087,-2.441409 0.580286,-0.75895 1.140702,-1.46241 1.679473,-2.10809 0.538774,-0.64568 1.055799,-1.23324 1.5488,-1.76109 0.493,-0.52786 0.961887,-0.99578 1.404855,-1.40124 0.442971,-0.40546 0.860171,-0.74879 1.248851,-1.02731 0.38868,-0.27851 0.749041,-0.4923 1.079174,-0.6393 0.330132,-0.14701 0.630109,-0.22709 0.897435,-0.23803 0.665745,-0.0272 1.226482,-0.0344 1.714455,-0.0145 z m -52.519652,12.492117 c 0.120194,0 0.252766,0.02001 0.395643,0.05871 0.142877,0.0387 0.296314,0.09626 0.459172,0.170882 0.325716,0.149259 0.688532,0.367383 1.077967,0.643726 0.389436,0.276341 0.805237,0.610671 1.236788,0.991922 0.431551,0.381251 0.878811,0.809392 1.330874,1.273376 0.452061,0.463987 0.909257,0.963944 1.360225,1.488488 0.450969,0.524547 0.895769,1.073923 1.324038,1.636855 0.42827,0.562932 0.839955,1.139332 1.223922,1.718475 0.383966,0.579143 0.740208,1.160977 1.058265,1.734156 0.576624,1.039126 1.659331,2.860937 2.406027,4.048511 0.413972,0.658382 0.862556,1.443914 1.309563,2.280981 0.447008,0.837066 0.892688,1.725549 1.301119,2.589775 0.408434,0.864226 0.779724,1.704365 1.077969,2.444223 0.298245,0.739858 0.523254,1.379557 0.639704,1.843521 0.09436,0.376116 0.128326,0.713638 0.106545,0.954532 -0.0109,0.120445 -0.03563,0.216616 -0.07359,0.281453 -0.03795,0.06483 -0.08948,0.09859 -0.15319,0.09328 -0.110279,-0.0092 -0.26716,-0.05432 -0.465203,-0.131076 -0.198042,-0.07675 -0.437226,-0.185158 -0.712078,-0.322064 -0.549704,-0.273812 -1.242068,-0.660682 -2.033301,-1.13064 -0.791234,-0.469957 -1.681211,-1.023196 -2.626365,-1.630019 -0.945151,-0.606821 -1.945409,-1.267273 -2.956872,-1.951678 -2.022925,-1.368813 -4.090924,-2.833611 -5.85343,-4.157071 -0.881254,-0.66173 -1.685911,-1.288082 -2.370644,-1.849552 -0.684735,-0.561471 -1.249519,-1.058012 -1.650123,-1.459941 -0.359048,-0.360236 -0.684016,-0.709931 -0.976242,-1.051832 -0.292226,-0.341901 -0.551571,-0.675853 -0.778823,-1.005193 -0.22725,-0.329338 -0.422509,-0.65369 -0.586629,-0.976241 -0.164122,-0.322551 -0.297228,-0.643449 -0.400067,-0.964984 -0.102834,-0.321535 -0.175328,-0.643918 -0.218729,-0.970211 -0.0434,-0.326292 -0.05762,-0.656306 -0.04343,-0.993128 0.0142,-0.336825 0.05672,-0.680613 0.126653,-1.033741 0.06993,-0.353126 0.167274,-0.715631 0.291104,-1.090834 0.0871,-0.263904 0.195754,-0.516943 0.324073,-0.757915 0.128322,-0.240969 0.276141,-0.469974 0.441481,-0.685138 0.16534,-0.215163 0.348266,-0.416631 0.546422,-0.603113 0.198156,-0.186484 0.41173,-0.35812 0.638498,-0.513051 0.226768,-0.154931 0.466532,-0.293229 0.717706,-0.413737 0.251175,-0.120508 0.513879,-0.223172 0.785256,-0.306382 0.271379,-0.08321 0.551758,-0.146739 0.839134,-0.18978 0.287376,-0.04304 0.581377,-0.06554 0.880548,-0.06554 z"
         style="fill:#6d3ac6;fill-opacity:1;stroke-width:2.04021"
         id="path231" /><path
         d="m -96.027758,-68.774226 c -0.39117,0.0061 -0.784385,0.03579 -1.186636,0.08809 -0.804499,0.104608 -1.646517,0.29956 -2.587824,0.578934 -0.941312,0.279375 -1.981502,0.642971 -3.182942,1.084154 -1.20143,0.441181 -2.56414,0.959786 -4.14903,1.549817 -5.94798,2.214362 -12.71522,4.689785 -15.03851,5.500477 -0.60602,0.211469 -1.1363,0.396897 -1.59776,0.58253 -0.46145,0.185633 -0.8538,0.371077 -1.18424,0.58373 -0.33044,0.212651 -0.59909,0.452418 -0.81206,0.744943 -0.21298,0.292524 -0.37039,0.637925 -0.47945,1.063178 -0.10901,0.425251 -0.16947,0.929996 -0.18819,1.540828 -0.0187,0.610832 0.005,1.328031 0.0623,2.177296 0.11615,1.698533 0.37239,3.926878 0.71437,6.896272 0.40636,3.528633 1.14973,11.122509 1.6523,16.875399 1.93234,22.1192602 2.41128,27.6857877 3.25366,37.8159234 0.34698,4.1727776 0.54757,7.1783016 0.81327,9.4565286 0.13284,1.139113 0.28218,2.096487 0.47405,2.927034 0.19187,0.830548 0.42619,1.534478 0.72996,2.16651 0.15189,0.316016 0.32143,0.614342 0.51121,0.901363 0.18978,0.287021 0.39979,0.562459 0.63408,0.834241 0.46858,0.543566 1.03314,1.070373 1.71943,1.63552 0.68627,0.565147 1.49431,1.168878 2.45117,1.865655 0.95687,0.696777 2.06262,1.486955 3.34296,2.425411 4.96317,3.637833 11.196075,8.226431 13.851271,10.197277 0.991521,0.735972 1.791956,1.312702 2.438596,1.745793 0.646639,0.43309 1.139792,0.723001 1.515657,0.885182 0.187932,0.08109 0.346514,0.12987 0.480648,0.149229 0.134134,0.01936 0.243618,0.009 0.333217,-0.02936 0.0896,-0.03838 0.159026,-0.104458 0.213354,-0.196574 0.05432,-0.09212 0.09334,-0.209936 0.12166,-0.351796 0.0758,-0.379882 -0.0017,-2.323131 -0.188183,-5.147483 -0.186498,-2.82435 -0.482071,-6.529864 -0.840833,-10.435202 -1.7796,-19.3720411 -2.636337,-29.1749061 -3.667784,-41.960159 -0.481972,-5.974157 -1.222958,-14.406632 -1.646906,-18.738656 -0.423915,-4.332024 -0.770714,-8.518535 -0.770714,-9.303705 0,-0.132145 0.05708,-0.281122 0.177995,-0.450082 0.120915,-0.168959 0.305672,-0.358292 0.559757,-0.571143 0.508168,-0.425704 1.294856,-0.946224 2.409229,-1.589972 1.114375,-0.643748 2.556355,-1.410498 4.374971,-2.328923 1.818616,-0.918425 4.014078,-1.988342 6.634971,-3.238077 l 14.156326,-6.750639 -10.334519,-5.05399 c -3.940533,-1.927157 -6.798379,-3.362727 -9.066377,-4.35759 -1.133999,-0.497431 -2.12088,-0.884863 -3.021726,-1.168656 -0.900846,-0.283793 -1.715905,-0.463459 -2.506918,-0.546571 -0.395506,-0.04155 -0.784677,-0.05893 -1.175848,-0.05275 z"
         style="fill:#1db9d2;fill-opacity:1;stroke-width:3.04102"
         id="path230" /><path
         d="m -52.977452,-49.997812 6.135146,3.185338 c 1.687243,0.875884 4.096883,2.073261 6.61999,3.29681 2.523106,1.223547 5.15989,2.473294 7.300806,3.453828 l 7.78505,3.565301 -0.351196,13.55162 c -0.468483,18.0690587 -0.830695,31.8726939 -1.129102,42.424626 -0.298409,10.551932 -0.533246,17.852303 -0.747341,22.915254 -0.107044,2.531476 -0.208994,4.503345 -0.311043,6.042853 -0.102045,1.539509 -0.203871,2.646179 -0.311641,3.447236 -0.107774,0.801059 -0.221591,1.296619 -0.345803,1.612746 -0.0621,0.158065 -0.12655,0.271026 -0.194776,0.355393 -0.06823,0.08436 -0.140065,0.139833 -0.215752,0.18219 -0.329553,0.184428 -0.917758,0.59977 -1.60016,1.119513 -0.682403,0.519742 -1.458894,1.144044 -2.164712,1.74819 -0.705803,0.604147 -1.664352,1.366274 -2.639964,2.107776 -0.975613,0.741504 -1.968025,1.462227 -2.742447,1.98312 -1.548847,1.041788 -5.375968,3.825281 -8.504224,6.18489 -1.564128,1.179806 -3.115604,2.250139 -4.355192,3.024123 -0.619794,0.386992 -1.161718,0.699671 -1.588174,0.915148 -0.426456,0.215478 -0.737056,0.333562 -0.89537,0.33082 -0.158308,-0.0028 -0.422807,-0.08809 -0.764722,-0.239126 -0.341915,-0.151033 -0.761458,-0.367604 -1.230385,-0.634669 -0.937855,-0.534134 -2.073011,-1.268662 -3.179345,-2.073617 -2.212638,-1.609912 -4.204048,-3.160296 -4.425312,-3.445439 -0.110697,-0.142578 -0.890178,-0.743513 -2.056835,-1.597164 -1.166658,-0.85365 -2.720871,-1.959599 -4.380365,-3.112221 -3.318987,-2.305243 -6.821431,-4.855306 -7.783851,-5.666486 -0.237222,-0.199943 -0.442045,-0.308668 -0.622084,-0.501024 -0.09002,-0.09618 -0.173904,-0.21353 -0.25291,-0.373371 -0.079,-0.159839 -0.152761,-0.362067 -0.222943,-0.629275 -0.140362,-0.534417 -0.265368,-1.32754 -0.383559,-2.553665 -0.118192,-1.226124 -0.229878,-2.885397 -0.343405,-5.152876 -0.227056,-4.534959 -0.462074,-11.502094 -0.775508,-22.300361 -0.313435,-10.798269 -0.704907,-25.4275769 -1.24477,-45.286336 l -0.389552,-14.332521 9.428959,-4.430107 c 5.185986,-2.436498 11.556029,-5.484695 14.155727,-6.774012 z"
         style="fill:#ce3f8f;fill-opacity:1;stroke-width:3.04102"
         id="path229" /></g></g></svg>
